<mxfile host="app.diagrams.net" modified="2024-03-28T11:03:08.252Z" agent="Mozilla/5.0 (Macintosh; Intel Mac OS X 10_15_7) AppleWebKit/605.1.15 (KHTML, like Gecko) Version/17.3 Safari/605.1.15" etag="g8-REvLffAF_7fyAtdfn" version="24.1.0" type="device">
  <diagram id="zoZJyUoyREIMNN8wMbUZ" name="Use case diagram">
    <mxGraphModel dx="954" dy="512" grid="0" gridSize="10" guides="1" tooltips="1" connect="1" arrows="1" fold="1" page="1" pageScale="1" pageWidth="827" pageHeight="1169" math="0" shadow="0">
      <root>
        <mxCell id="0" />
        <mxCell id="1" parent="0" />
        <mxCell id="8sVRwq0MIBhfLBCV8LHx-1" value="" style="edgeStyle=orthogonalEdgeStyle;rounded=0;orthogonalLoop=1;jettySize=auto;html=1;" parent="1" source="z9jJJr1QuuOx36FKF8ej-2" target="z9jJJr1QuuOx36FKF8ej-51" edge="1">
          <mxGeometry relative="1" as="geometry" />
        </mxCell>
        <mxCell id="8sVRwq0MIBhfLBCV8LHx-2" value="" style="edgeStyle=orthogonalEdgeStyle;rounded=0;orthogonalLoop=1;jettySize=auto;html=1;exitX=0.5;exitY=0.5;exitDx=0;exitDy=0;exitPerimeter=0;" parent="1" source="z9jJJr1QuuOx36FKF8ej-2" target="z9jJJr1QuuOx36FKF8ej-51" edge="1">
          <mxGeometry relative="1" as="geometry" />
        </mxCell>
        <mxCell id="z9jJJr1QuuOx36FKF8ej-2" value="Client" style="shape=umlActor;verticalLabelPosition=bottom;verticalAlign=top;html=1;outlineConnect=0;" parent="1" vertex="1">
          <mxGeometry x="473.5" y="334" width="30" height="60" as="geometry" />
        </mxCell>
        <mxCell id="z9jJJr1QuuOx36FKF8ej-3" value="Manager" style="shape=umlActor;verticalLabelPosition=bottom;verticalAlign=top;html=1;outlineConnect=0;" parent="1" vertex="1">
          <mxGeometry x="569.5" y="644" width="30" height="56" as="geometry" />
        </mxCell>
        <mxCell id="z9jJJr1QuuOx36FKF8ej-4" value="Register in the system" style="ellipse;whiteSpace=wrap;html=1;" parent="1" vertex="1">
          <mxGeometry x="569.5" y="340" width="90" height="60" as="geometry" />
        </mxCell>
        <mxCell id="z9jJJr1QuuOx36FKF8ej-5" value="login to account" style="ellipse;whiteSpace=wrap;html=1;" parent="1" vertex="1">
          <mxGeometry x="531.5" y="239" width="90" height="60" as="geometry" />
        </mxCell>
        <mxCell id="z9jJJr1QuuOx36FKF8ej-6" value="Apply for a loan" style="ellipse;whiteSpace=wrap;html=1;" parent="1" vertex="1">
          <mxGeometry x="198" y="306" width="90" height="60" as="geometry" />
        </mxCell>
        <mxCell id="z9jJJr1QuuOx36FKF8ej-7" value="Enter personal information" style="ellipse;whiteSpace=wrap;html=1;" parent="1" vertex="1">
          <mxGeometry x="729.5" y="334" width="90" height="60" as="geometry" />
        </mxCell>
        <mxCell id="z9jJJr1QuuOx36FKF8ej-8" value="Add identification documents" style="ellipse;whiteSpace=wrap;html=1;" parent="1" vertex="1">
          <mxGeometry x="713.5" y="400" width="100" height="60" as="geometry" />
        </mxCell>
        <mxCell id="z9jJJr1QuuOx36FKF8ej-9" value="Select amount" style="ellipse;whiteSpace=wrap;html=1;" parent="1" vertex="1">
          <mxGeometry x="147" y="450" width="90" height="60" as="geometry" />
        </mxCell>
        <mxCell id="z9jJJr1QuuOx36FKF8ej-10" value="Select loan type" style="ellipse;whiteSpace=wrap;html=1;" parent="1" vertex="1">
          <mxGeometry x="244" y="450" width="90" height="60" as="geometry" />
        </mxCell>
        <mxCell id="z9jJJr1QuuOx36FKF8ej-11" value="Provide documents corresponding to the selected type of loan" style="ellipse;whiteSpace=wrap;html=1;" parent="1" vertex="1">
          <mxGeometry y="345" width="100" height="60" as="geometry" />
        </mxCell>
        <mxCell id="z9jJJr1QuuOx36FKF8ej-12" value="Send confirmation request" style="ellipse;whiteSpace=wrap;html=1;" parent="1" vertex="1">
          <mxGeometry x="48" y="280" width="110" height="60" as="geometry" />
        </mxCell>
        <mxCell id="z9jJJr1QuuOx36FKF8ej-13" value="" style="endArrow=none;html=1;rounded=0;entryX=0;entryY=0.5;entryDx=0;entryDy=0;exitX=0.5;exitY=0.5;exitDx=0;exitDy=0;exitPerimeter=0;" parent="1" source="z9jJJr1QuuOx36FKF8ej-2" target="z9jJJr1QuuOx36FKF8ej-4" edge="1">
          <mxGeometry width="50" height="50" relative="1" as="geometry">
            <mxPoint x="343.5" y="424" as="sourcePoint" />
            <mxPoint x="393.5" y="374" as="targetPoint" />
          </mxGeometry>
        </mxCell>
        <mxCell id="z9jJJr1QuuOx36FKF8ej-14" value="" style="html=1;verticalAlign=bottom;labelBackgroundColor=none;endArrow=block;endFill=1;dashed=1;rounded=0;entryX=0.5;entryY=0;entryDx=0;entryDy=0;exitX=0.5;exitY=1;exitDx=0;exitDy=0;" parent="1" source="z9jJJr1QuuOx36FKF8ej-6" target="z9jJJr1QuuOx36FKF8ej-9" edge="1">
          <mxGeometry width="160" relative="1" as="geometry">
            <mxPoint x="238" y="360" as="sourcePoint" />
            <mxPoint x="148" y="636" as="targetPoint" />
          </mxGeometry>
        </mxCell>
        <mxCell id="z9jJJr1QuuOx36FKF8ej-15" value="" style="html=1;verticalAlign=bottom;labelBackgroundColor=none;endArrow=block;endFill=1;dashed=1;rounded=0;exitX=1;exitY=1;exitDx=0;exitDy=0;entryX=0;entryY=0;entryDx=0;entryDy=0;" parent="1" source="z9jJJr1QuuOx36FKF8ej-4" target="z9jJJr1QuuOx36FKF8ej-8" edge="1">
          <mxGeometry width="160" relative="1" as="geometry">
            <mxPoint x="291.5" y="472" as="sourcePoint" />
            <mxPoint x="451.5" y="472" as="targetPoint" />
          </mxGeometry>
        </mxCell>
        <mxCell id="z9jJJr1QuuOx36FKF8ej-16" value="" style="endArrow=none;html=1;rounded=0;entryX=0.5;entryY=0.5;entryDx=0;entryDy=0;entryPerimeter=0;exitX=1;exitY=0.5;exitDx=0;exitDy=0;" parent="1" source="z9jJJr1QuuOx36FKF8ej-6" target="z9jJJr1QuuOx36FKF8ej-2" edge="1">
          <mxGeometry width="50" height="50" relative="1" as="geometry">
            <mxPoint x="323.5" y="444" as="sourcePoint" />
            <mxPoint x="373.5" y="394" as="targetPoint" />
          </mxGeometry>
        </mxCell>
        <mxCell id="z9jJJr1QuuOx36FKF8ej-17" value="" style="html=1;verticalAlign=bottom;labelBackgroundColor=none;endArrow=block;endFill=1;dashed=1;rounded=0;exitX=0.5;exitY=1;exitDx=0;exitDy=0;entryX=0.5;entryY=0;entryDx=0;entryDy=0;" parent="1" source="z9jJJr1QuuOx36FKF8ej-6" target="z9jJJr1QuuOx36FKF8ej-10" edge="1">
          <mxGeometry width="160" relative="1" as="geometry">
            <mxPoint x="108" y="446" as="sourcePoint" />
            <mxPoint x="268" y="446" as="targetPoint" />
            <Array as="points" />
          </mxGeometry>
        </mxCell>
        <mxCell id="z9jJJr1QuuOx36FKF8ej-18" value="" style="html=1;verticalAlign=bottom;labelBackgroundColor=none;endArrow=block;endFill=1;dashed=1;rounded=0;exitX=0;exitY=0.5;exitDx=0;exitDy=0;entryX=1;entryY=0.5;entryDx=0;entryDy=0;" parent="1" source="z9jJJr1QuuOx36FKF8ej-6" target="z9jJJr1QuuOx36FKF8ej-12" edge="1">
          <mxGeometry width="160" relative="1" as="geometry">
            <mxPoint x="108" y="446" as="sourcePoint" />
            <mxPoint x="268" y="446" as="targetPoint" />
          </mxGeometry>
        </mxCell>
        <mxCell id="z9jJJr1QuuOx36FKF8ej-19" value="" style="html=1;verticalAlign=bottom;labelBackgroundColor=none;endArrow=block;endFill=1;dashed=1;rounded=0;exitX=0;exitY=1;exitDx=0;exitDy=0;entryX=1;entryY=0.5;entryDx=0;entryDy=0;" parent="1" source="z9jJJr1QuuOx36FKF8ej-6" target="z9jJJr1QuuOx36FKF8ej-11" edge="1">
          <mxGeometry width="160" relative="1" as="geometry">
            <mxPoint x="207.5" y="377.5" as="sourcePoint" />
            <mxPoint x="268" y="446" as="targetPoint" />
          </mxGeometry>
        </mxCell>
        <mxCell id="z9jJJr1QuuOx36FKF8ej-20" value="" style="html=1;verticalAlign=bottom;labelBackgroundColor=none;endArrow=block;endFill=1;dashed=1;rounded=0;exitX=1;exitY=0.5;exitDx=0;exitDy=0;entryX=0;entryY=0.5;entryDx=0;entryDy=0;" parent="1" source="z9jJJr1QuuOx36FKF8ej-4" target="z9jJJr1QuuOx36FKF8ej-7" edge="1">
          <mxGeometry width="160" relative="1" as="geometry">
            <mxPoint x="717.4974746830583" y="275.21320343559637" as="sourcePoint" />
            <mxPoint x="458" y="384" as="targetPoint" />
          </mxGeometry>
        </mxCell>
        <mxCell id="z9jJJr1QuuOx36FKF8ej-21" value="Select the type of person to whom the service will be provided" style="ellipse;whiteSpace=wrap;html=1;" parent="1" vertex="1">
          <mxGeometry x="58" y="405" width="100" height="60" as="geometry" />
        </mxCell>
        <mxCell id="z9jJJr1QuuOx36FKF8ej-22" value="" style="html=1;verticalAlign=bottom;labelBackgroundColor=none;endArrow=block;endFill=1;dashed=1;rounded=0;exitX=0.5;exitY=1;exitDx=0;exitDy=0;entryX=1;entryY=0.5;entryDx=0;entryDy=0;" parent="1" source="z9jJJr1QuuOx36FKF8ej-6" target="z9jJJr1QuuOx36FKF8ej-21" edge="1">
          <mxGeometry width="160" relative="1" as="geometry">
            <mxPoint x="188" y="486" as="sourcePoint" />
            <mxPoint x="348" y="486" as="targetPoint" />
          </mxGeometry>
        </mxCell>
        <mxCell id="z9jJJr1QuuOx36FKF8ej-23" value="Draw up a loan agreement" style="ellipse;whiteSpace=wrap;html=1;" parent="1" vertex="1">
          <mxGeometry x="676.5" y="584" width="90" height="60" as="geometry" />
        </mxCell>
        <mxCell id="z9jJJr1QuuOx36FKF8ej-24" value="" style="endArrow=none;html=1;rounded=0;exitX=0.5;exitY=0.5;exitDx=0;exitDy=0;exitPerimeter=0;entryX=0;entryY=0.5;entryDx=0;entryDy=0;" parent="1" source="z9jJJr1QuuOx36FKF8ej-3" target="z9jJJr1QuuOx36FKF8ej-23" edge="1">
          <mxGeometry width="50" height="50" relative="1" as="geometry">
            <mxPoint x="746.5" y="654" as="sourcePoint" />
            <mxPoint x="796.5" y="604" as="targetPoint" />
          </mxGeometry>
        </mxCell>
        <mxCell id="z9jJJr1QuuOx36FKF8ej-25" value="" style="endArrow=none;html=1;rounded=0;exitX=0.5;exitY=0.5;exitDx=0;exitDy=0;exitPerimeter=0;entryX=0;entryY=0;entryDx=0;entryDy=0;" parent="1" source="z9jJJr1QuuOx36FKF8ej-2" target="z9jJJr1QuuOx36FKF8ej-49" edge="1">
          <mxGeometry width="50" height="50" relative="1" as="geometry">
            <mxPoint x="463.5" y="574" as="sourcePoint" />
            <mxPoint x="536.6801948466054" y="442.78679656440363" as="targetPoint" />
          </mxGeometry>
        </mxCell>
        <mxCell id="z9jJJr1QuuOx36FKF8ej-26" value="Notify about loan refusal" style="ellipse;whiteSpace=wrap;html=1;" parent="1" vertex="1">
          <mxGeometry x="696.5" y="644" width="90" height="60" as="geometry" />
        </mxCell>
        <mxCell id="z9jJJr1QuuOx36FKF8ej-27" value="" style="endArrow=none;html=1;rounded=0;exitX=0.5;exitY=0.5;exitDx=0;exitDy=0;exitPerimeter=0;entryX=0;entryY=0.5;entryDx=0;entryDy=0;" parent="1" source="z9jJJr1QuuOx36FKF8ej-3" target="z9jJJr1QuuOx36FKF8ej-26" edge="1">
          <mxGeometry width="50" height="50" relative="1" as="geometry">
            <mxPoint x="746.5" y="644" as="sourcePoint" />
            <mxPoint x="796.5" y="594" as="targetPoint" />
          </mxGeometry>
        </mxCell>
        <mxCell id="z9jJJr1QuuOx36FKF8ej-28" value="include" style="text;html=1;strokeColor=none;fillColor=none;align=center;verticalAlign=middle;whiteSpace=wrap;rounded=0;fontSize=10;" parent="1" vertex="1">
          <mxGeometry x="671.5" y="312" width="40" height="20" as="geometry" />
        </mxCell>
        <mxCell id="z9jJJr1QuuOx36FKF8ej-29" value="include" style="text;html=1;strokeColor=none;fillColor=none;align=center;verticalAlign=middle;whiteSpace=wrap;rounded=0;fontSize=10;" parent="1" vertex="1">
          <mxGeometry x="687.5" y="380" width="40" height="20" as="geometry" />
        </mxCell>
        <mxCell id="z9jJJr1QuuOx36FKF8ej-30" value="Help with completing a loan application" style="ellipse;whiteSpace=wrap;html=1;" parent="1" vertex="1">
          <mxGeometry x="546.5" y="550" width="90" height="60" as="geometry" />
        </mxCell>
        <mxCell id="z9jJJr1QuuOx36FKF8ej-31" value="" style="endArrow=none;html=1;rounded=0;fontSize=12;exitX=0.5;exitY=0.5;exitDx=0;exitDy=0;exitPerimeter=0;entryX=0.5;entryY=1;entryDx=0;entryDy=0;" parent="1" source="z9jJJr1QuuOx36FKF8ej-3" target="z9jJJr1QuuOx36FKF8ej-30" edge="1">
          <mxGeometry width="50" height="50" relative="1" as="geometry">
            <mxPoint x="896.5" y="590" as="sourcePoint" />
            <mxPoint x="946.5" y="540" as="targetPoint" />
          </mxGeometry>
        </mxCell>
        <mxCell id="z9jJJr1QuuOx36FKF8ej-32" value="&quot;include&quot;" style="text;html=1;strokeColor=none;fillColor=none;align=center;verticalAlign=middle;whiteSpace=wrap;rounded=0;fontSize=12;" parent="1" vertex="1">
          <mxGeometry x="253" y="395" width="51" height="15" as="geometry" />
        </mxCell>
        <mxCell id="z9jJJr1QuuOx36FKF8ej-33" value="&quot;include&quot;" style="text;html=1;strokeColor=none;fillColor=none;align=center;verticalAlign=middle;whiteSpace=wrap;rounded=0;fontSize=12;" parent="1" vertex="1">
          <mxGeometry x="198.5" y="410" width="51" height="15" as="geometry" />
        </mxCell>
        <mxCell id="z9jJJr1QuuOx36FKF8ej-34" value="&quot;include&quot;" style="text;html=1;strokeColor=none;fillColor=none;align=center;verticalAlign=middle;whiteSpace=wrap;rounded=0;fontSize=12;" parent="1" vertex="1">
          <mxGeometry x="133" y="351" width="51" height="15" as="geometry" />
        </mxCell>
        <mxCell id="z9jJJr1QuuOx36FKF8ej-35" value="&quot;include&quot;" style="text;html=1;strokeColor=none;fillColor=none;align=center;verticalAlign=middle;whiteSpace=wrap;rounded=0;fontSize=12;" parent="1" vertex="1">
          <mxGeometry x="147" y="327" width="51" height="15" as="geometry" />
        </mxCell>
        <mxCell id="z9jJJr1QuuOx36FKF8ej-36" value="Enter login" style="ellipse;whiteSpace=wrap;html=1;" parent="1" vertex="1">
          <mxGeometry x="491.5" y="149" width="90" height="60" as="geometry" />
        </mxCell>
        <mxCell id="z9jJJr1QuuOx36FKF8ej-37" value="Enter contact information" style="ellipse;whiteSpace=wrap;html=1;" parent="1" vertex="1">
          <mxGeometry x="709.5" y="263" width="90" height="60" as="geometry" />
        </mxCell>
        <mxCell id="z9jJJr1QuuOx36FKF8ej-38" value="Enter password" style="ellipse;whiteSpace=wrap;html=1;" parent="1" vertex="1">
          <mxGeometry x="589.5" y="149" width="90" height="60" as="geometry" />
        </mxCell>
        <mxCell id="z9jJJr1QuuOx36FKF8ej-39" value="Recover account" style="ellipse;whiteSpace=wrap;html=1;" parent="1" vertex="1">
          <mxGeometry x="646.5" y="200" width="90" height="60" as="geometry" />
        </mxCell>
        <mxCell id="z9jJJr1QuuOx36FKF8ej-40" value="log out of your account" style="ellipse;whiteSpace=wrap;html=1;" parent="1" vertex="1">
          <mxGeometry x="383.5" y="185" width="90" height="60" as="geometry" />
        </mxCell>
        <mxCell id="z9jJJr1QuuOx36FKF8ej-41" value="Find out account information" style="ellipse;whiteSpace=wrap;html=1;" parent="1" vertex="1">
          <mxGeometry x="288" y="243" width="90" height="60" as="geometry" />
        </mxCell>
        <mxCell id="z9jJJr1QuuOx36FKF8ej-42" value="Find out card balance" style="ellipse;whiteSpace=wrap;html=1;" parent="1" vertex="1">
          <mxGeometry x="299.5" y="140" width="90" height="60" as="geometry" />
        </mxCell>
        <mxCell id="z9jJJr1QuuOx36FKF8ej-43" value="Find out your transaction history" style="ellipse;whiteSpace=wrap;html=1;" parent="1" vertex="1">
          <mxGeometry x="183.5" y="140" width="90" height="60" as="geometry" />
        </mxCell>
        <mxCell id="z9jJJr1QuuOx36FKF8ej-44" value="Find out details" style="ellipse;whiteSpace=wrap;html=1;" parent="1" vertex="1">
          <mxGeometry x="133" y="209" width="90" height="60" as="geometry" />
        </mxCell>
        <mxCell id="z9jJJr1QuuOx36FKF8ej-45" value="" style="endArrow=none;html=1;rounded=0;entryX=0.5;entryY=0.5;entryDx=0;entryDy=0;entryPerimeter=0;exitX=1;exitY=1;exitDx=0;exitDy=0;" parent="1" source="z9jJJr1QuuOx36FKF8ej-41" target="z9jJJr1QuuOx36FKF8ej-2" edge="1">
          <mxGeometry width="50" height="50" relative="1" as="geometry">
            <mxPoint x="270.31980515339455" y="317.78679656440363" as="sourcePoint" />
            <mxPoint x="498.5" y="374" as="targetPoint" />
          </mxGeometry>
        </mxCell>
        <mxCell id="z9jJJr1QuuOx36FKF8ej-46" value="" style="endArrow=none;html=1;rounded=0;entryX=0.5;entryY=0.5;entryDx=0;entryDy=0;entryPerimeter=0;exitX=0.5;exitY=1;exitDx=0;exitDy=0;" parent="1" source="z9jJJr1QuuOx36FKF8ej-40" target="z9jJJr1QuuOx36FKF8ej-2" edge="1">
          <mxGeometry width="50" height="50" relative="1" as="geometry">
            <mxPoint x="350.31980515339455" y="291.21320343559637" as="sourcePoint" />
            <mxPoint x="498.5" y="374" as="targetPoint" />
          </mxGeometry>
        </mxCell>
        <mxCell id="z9jJJr1QuuOx36FKF8ej-47" value="" style="endArrow=none;html=1;rounded=0;exitX=0;exitY=1;exitDx=0;exitDy=0;entryX=0.5;entryY=0.5;entryDx=0;entryDy=0;entryPerimeter=0;" parent="1" source="z9jJJr1QuuOx36FKF8ej-5" target="z9jJJr1QuuOx36FKF8ej-2" edge="1">
          <mxGeometry width="50" height="50" relative="1" as="geometry">
            <mxPoint x="360.31980515339455" y="301.21320343559637" as="sourcePoint" />
            <mxPoint x="539.5" y="350" as="targetPoint" />
          </mxGeometry>
        </mxCell>
        <mxCell id="z9jJJr1QuuOx36FKF8ej-48" value="" style="endArrow=none;html=1;rounded=0;entryX=0;entryY=0;entryDx=0;entryDy=0;exitX=0.5;exitY=0.5;exitDx=0;exitDy=0;exitPerimeter=0;" parent="1" source="z9jJJr1QuuOx36FKF8ej-2" target="z9jJJr1QuuOx36FKF8ej-50" edge="1">
          <mxGeometry width="50" height="50" relative="1" as="geometry">
            <mxPoint x="646.4998051533946" y="510.00320343559633" as="sourcePoint" />
            <mxPoint x="794.6800000000001" y="592.79" as="targetPoint" />
          </mxGeometry>
        </mxCell>
        <mxCell id="z9jJJr1QuuOx36FKF8ej-49" value="Leave a request to close an account" style="ellipse;whiteSpace=wrap;html=1;" parent="1" vertex="1">
          <mxGeometry x="621.5" y="420" width="90" height="60" as="geometry" />
        </mxCell>
        <mxCell id="z9jJJr1QuuOx36FKF8ej-50" value="Leave a request for a card" style="ellipse;whiteSpace=wrap;html=1;" parent="1" vertex="1">
          <mxGeometry x="531.5" y="440" width="90" height="60" as="geometry" />
        </mxCell>
        <mxCell id="z9jJJr1QuuOx36FKF8ej-51" value="Card reissue" style="ellipse;whiteSpace=wrap;html=1;" parent="1" vertex="1">
          <mxGeometry x="443.5" y="480" width="90" height="60" as="geometry" />
        </mxCell>
        <mxCell id="z9jJJr1QuuOx36FKF8ej-52" value="&quot;include&quot;" style="text;html=1;strokeColor=none;fillColor=none;align=center;verticalAlign=middle;whiteSpace=wrap;rounded=0;fontSize=12;" parent="1" vertex="1">
          <mxGeometry x="172" y="380" width="51" height="15" as="geometry" />
        </mxCell>
        <mxCell id="z9jJJr1QuuOx36FKF8ej-54" value="Contact support" style="ellipse;whiteSpace=wrap;html=1;" parent="1" vertex="1">
          <mxGeometry x="351.5" y="387.5" width="90" height="60" as="geometry" />
        </mxCell>
        <mxCell id="z9jJJr1QuuOx36FKF8ej-55" value="" style="endArrow=none;html=1;rounded=0;entryX=1;entryY=0;entryDx=0;entryDy=0;exitX=0.5;exitY=0.5;exitDx=0;exitDy=0;exitPerimeter=0;" parent="1" source="z9jJJr1QuuOx36FKF8ej-2" target="z9jJJr1QuuOx36FKF8ej-54" edge="1">
          <mxGeometry width="50" height="50" relative="1" as="geometry">
            <mxPoint x="519.5" y="340" as="sourcePoint" />
            <mxPoint x="496.5" y="460" as="targetPoint" />
          </mxGeometry>
        </mxCell>
        <mxCell id="z9jJJr1QuuOx36FKF8ej-56" value="" style="html=1;verticalAlign=bottom;labelBackgroundColor=none;endArrow=block;endFill=1;dashed=1;rounded=0;exitX=1;exitY=0;exitDx=0;exitDy=0;entryX=0;entryY=1;entryDx=0;entryDy=0;" parent="1" source="z9jJJr1QuuOx36FKF8ej-4" target="z9jJJr1QuuOx36FKF8ej-37" edge="1">
          <mxGeometry width="160" relative="1" as="geometry">
            <mxPoint x="669.4999999999905" y="380" as="sourcePoint" />
            <mxPoint x="739.4999999999995" y="374" as="targetPoint" />
          </mxGeometry>
        </mxCell>
        <mxCell id="z9jJJr1QuuOx36FKF8ej-57" value="" style="html=1;verticalAlign=bottom;labelBackgroundColor=none;endArrow=block;endFill=1;dashed=1;rounded=0;exitX=1;exitY=0.5;exitDx=0;exitDy=0;entryX=0;entryY=1;entryDx=0;entryDy=0;" parent="1" source="z9jJJr1QuuOx36FKF8ej-5" target="z9jJJr1QuuOx36FKF8ej-39" edge="1">
          <mxGeometry width="160" relative="1" as="geometry">
            <mxPoint x="656.5298299698156" y="358.9277434409104" as="sourcePoint" />
            <mxPoint x="732.4701700301962" y="324.072256559081" as="targetPoint" />
          </mxGeometry>
        </mxCell>
        <mxCell id="z9jJJr1QuuOx36FKF8ej-58" value="" style="html=1;verticalAlign=bottom;labelBackgroundColor=none;endArrow=block;endFill=1;dashed=1;rounded=0;exitX=1;exitY=0;exitDx=0;exitDy=0;entryX=0.349;entryY=0.971;entryDx=0;entryDy=0;entryPerimeter=0;" parent="1" source="z9jJJr1QuuOx36FKF8ej-5" target="z9jJJr1QuuOx36FKF8ej-38" edge="1">
          <mxGeometry width="160" relative="1" as="geometry">
            <mxPoint x="631.5" y="279" as="sourcePoint" />
            <mxPoint x="669.4701700301966" y="261.0722565590813" as="targetPoint" />
          </mxGeometry>
        </mxCell>
        <mxCell id="z9jJJr1QuuOx36FKF8ej-59" value="" style="html=1;verticalAlign=bottom;labelBackgroundColor=none;endArrow=block;endFill=1;dashed=1;rounded=0;exitX=0.5;exitY=0;exitDx=0;exitDy=0;entryX=0.716;entryY=0.955;entryDx=0;entryDy=0;entryPerimeter=0;" parent="1" source="z9jJJr1QuuOx36FKF8ej-5" target="z9jJJr1QuuOx36FKF8ej-36" edge="1">
          <mxGeometry width="160" relative="1" as="geometry">
            <mxPoint x="618.5298299698029" y="257.92774344091936" as="sourcePoint" />
            <mxPoint x="630.9099999999999" y="217.25999999999988" as="targetPoint" />
          </mxGeometry>
        </mxCell>
        <mxCell id="z9jJJr1QuuOx36FKF8ej-60" value="" style="html=1;verticalAlign=bottom;labelBackgroundColor=none;endArrow=block;endFill=1;dashed=1;rounded=0;exitX=1;exitY=0;exitDx=0;exitDy=0;entryX=0.5;entryY=1;entryDx=0;entryDy=0;" parent="1" source="z9jJJr1QuuOx36FKF8ej-41" target="z9jJJr1QuuOx36FKF8ej-42" edge="1">
          <mxGeometry width="160" relative="1" as="geometry">
            <mxPoint x="586.5" y="249" as="sourcePoint" />
            <mxPoint x="565.94" y="216.30000000000007" as="targetPoint" />
          </mxGeometry>
        </mxCell>
        <mxCell id="z9jJJr1QuuOx36FKF8ej-61" value="" style="html=1;verticalAlign=bottom;labelBackgroundColor=none;endArrow=block;endFill=1;dashed=1;rounded=0;exitX=0;exitY=0;exitDx=0;exitDy=0;entryX=0.75;entryY=0.979;entryDx=0;entryDy=0;entryPerimeter=0;" parent="1" source="z9jJJr1QuuOx36FKF8ej-41" target="z9jJJr1QuuOx36FKF8ej-43" edge="1">
          <mxGeometry width="160" relative="1" as="geometry">
            <mxPoint x="350.5298299698161" y="238.92774344091038" as="sourcePoint" />
            <mxPoint x="354.5" y="210" as="targetPoint" />
          </mxGeometry>
        </mxCell>
        <mxCell id="z9jJJr1QuuOx36FKF8ej-62" value="" style="html=1;verticalAlign=bottom;labelBackgroundColor=none;endArrow=block;endFill=1;dashed=1;rounded=0;exitX=0;exitY=0.5;exitDx=0;exitDy=0;entryX=1;entryY=0.5;entryDx=0;entryDy=0;" parent="1" source="z9jJJr1QuuOx36FKF8ej-41" target="z9jJJr1QuuOx36FKF8ej-44" edge="1">
          <mxGeometry width="160" relative="1" as="geometry">
            <mxPoint x="286.47017003018436" y="238.9277434409105" as="sourcePoint" />
            <mxPoint x="261" y="208.74" as="targetPoint" />
          </mxGeometry>
        </mxCell>
        <mxCell id="z9jJJr1QuuOx36FKF8ej-63" value="include" style="text;html=1;strokeColor=none;fillColor=none;align=center;verticalAlign=middle;whiteSpace=wrap;rounded=0;fontSize=10;" parent="1" vertex="1">
          <mxGeometry x="599.5" y="219" width="40" height="20" as="geometry" />
        </mxCell>
        <mxCell id="z9jJJr1QuuOx36FKF8ej-64" value="include" style="text;html=1;strokeColor=none;fillColor=none;align=center;verticalAlign=middle;whiteSpace=wrap;rounded=0;fontSize=10;" parent="1" vertex="1">
          <mxGeometry x="541.5" y="219" width="40" height="20" as="geometry" />
        </mxCell>
        <mxCell id="z9jJJr1QuuOx36FKF8ej-65" value="extend" style="text;html=1;strokeColor=none;fillColor=none;align=center;verticalAlign=middle;whiteSpace=wrap;rounded=0;fontSize=10;" parent="1" vertex="1">
          <mxGeometry x="259.5" y="209" width="40" height="20" as="geometry" />
        </mxCell>
        <mxCell id="z9jJJr1QuuOx36FKF8ej-66" value="extend" style="text;html=1;strokeColor=none;fillColor=none;align=center;verticalAlign=middle;whiteSpace=wrap;rounded=0;fontSize=10;" parent="1" vertex="1">
          <mxGeometry x="223.5" y="243" width="40" height="20" as="geometry" />
        </mxCell>
        <mxCell id="z9jJJr1QuuOx36FKF8ej-67" value="extend" style="text;html=1;strokeColor=none;fillColor=none;align=center;verticalAlign=middle;whiteSpace=wrap;rounded=0;fontSize=10;" parent="1" vertex="1">
          <mxGeometry x="304" y="205" width="40" height="20" as="geometry" />
        </mxCell>
        <mxCell id="z9jJJr1QuuOx36FKF8ej-68" value="Support" style="shape=umlActor;verticalLabelPosition=bottom;verticalAlign=top;html=1;outlineConnect=0;" parent="1" vertex="1">
          <mxGeometry x="210" y="894" width="30" height="60" as="geometry" />
        </mxCell>
        <mxCell id="z9jJJr1QuuOx36FKF8ej-69" value="Reply to message" style="ellipse;whiteSpace=wrap;html=1;" parent="1" vertex="1">
          <mxGeometry x="340" y="824" width="90" height="60" as="geometry" />
        </mxCell>
        <mxCell id="z9jJJr1QuuOx36FKF8ej-70" value="" style="endArrow=none;html=1;rounded=0;exitX=0.5;exitY=0.5;exitDx=0;exitDy=0;exitPerimeter=0;entryX=0;entryY=0.5;entryDx=0;entryDy=0;" parent="1" source="z9jJJr1QuuOx36FKF8ej-68" target="z9jJJr1QuuOx36FKF8ej-69" edge="1">
          <mxGeometry width="50" height="50" relative="1" as="geometry">
            <mxPoint x="410" y="894" as="sourcePoint" />
            <mxPoint x="460" y="844" as="targetPoint" />
          </mxGeometry>
        </mxCell>
        <mxCell id="z9jJJr1QuuOx36FKF8ej-71" value="Help with setting up the application" style="ellipse;whiteSpace=wrap;html=1;" parent="1" vertex="1">
          <mxGeometry x="350" y="904" width="90" height="60" as="geometry" />
        </mxCell>
        <mxCell id="z9jJJr1QuuOx36FKF8ej-72" value="" style="endArrow=none;html=1;rounded=0;exitX=0.5;exitY=0.5;exitDx=0;exitDy=0;exitPerimeter=0;entryX=0;entryY=0.5;entryDx=0;entryDy=0;" parent="1" source="z9jJJr1QuuOx36FKF8ej-68" target="z9jJJr1QuuOx36FKF8ej-71" edge="1">
          <mxGeometry width="50" height="50" relative="1" as="geometry">
            <mxPoint x="410" y="884" as="sourcePoint" />
            <mxPoint x="460" y="834" as="targetPoint" />
          </mxGeometry>
        </mxCell>
        <mxCell id="z9jJJr1QuuOx36FKF8ej-73" value="Check client account status" style="ellipse;whiteSpace=wrap;html=1;" parent="1" vertex="1">
          <mxGeometry x="210" y="790" width="90" height="60" as="geometry" />
        </mxCell>
        <mxCell id="z9jJJr1QuuOx36FKF8ej-74" value="" style="endArrow=none;html=1;rounded=0;fontSize=12;exitX=0.5;exitY=0.5;exitDx=0;exitDy=0;exitPerimeter=0;entryX=0.5;entryY=1;entryDx=0;entryDy=0;" parent="1" source="z9jJJr1QuuOx36FKF8ej-68" target="z9jJJr1QuuOx36FKF8ej-73" edge="1">
          <mxGeometry width="50" height="50" relative="1" as="geometry">
            <mxPoint x="560" y="830" as="sourcePoint" />
            <mxPoint x="610" y="780" as="targetPoint" />
          </mxGeometry>
        </mxCell>
        <mxCell id="z9jJJr1QuuOx36FKF8ej-75" value="Tell us about your loan status" style="ellipse;whiteSpace=wrap;html=1;" parent="1" vertex="1">
          <mxGeometry x="82" y="730" width="90" height="60" as="geometry" />
        </mxCell>
        <mxCell id="z9jJJr1QuuOx36FKF8ej-76" value="Find out card balance" style="ellipse;whiteSpace=wrap;html=1;" parent="1" vertex="1">
          <mxGeometry x="293.5" y="700" width="90" height="60" as="geometry" />
        </mxCell>
        <mxCell id="z9jJJr1QuuOx36FKF8ej-77" value="Find out your transaction history" style="ellipse;whiteSpace=wrap;html=1;" parent="1" vertex="1">
          <mxGeometry x="184" y="694" width="90" height="60" as="geometry" />
        </mxCell>
        <mxCell id="z9jJJr1QuuOx36FKF8ej-78" value="Tell us about the nearest ATMs and branches" style="ellipse;whiteSpace=wrap;html=1;" parent="1" vertex="1">
          <mxGeometry x="30" y="870" width="90" height="60" as="geometry" />
        </mxCell>
        <mxCell id="z9jJJr1QuuOx36FKF8ej-79" value="" style="endArrow=none;html=1;rounded=0;exitX=1;exitY=0.5;exitDx=0;exitDy=0;entryX=0.5;entryY=0.5;entryDx=0;entryDy=0;entryPerimeter=0;" parent="1" source="z9jJJr1QuuOx36FKF8ej-78" target="z9jJJr1QuuOx36FKF8ej-68" edge="1">
          <mxGeometry width="50" height="50" relative="1" as="geometry">
            <mxPoint x="235" y="934" as="sourcePoint" />
            <mxPoint x="350" y="864" as="targetPoint" />
          </mxGeometry>
        </mxCell>
        <mxCell id="z9jJJr1QuuOx36FKF8ej-80" value="" style="html=1;verticalAlign=bottom;labelBackgroundColor=none;endArrow=block;endFill=1;dashed=1;rounded=0;exitX=0;exitY=1;exitDx=0;exitDy=0;entryX=1;entryY=0;entryDx=0;entryDy=0;" parent="1" source="z9jJJr1QuuOx36FKF8ej-76" target="z9jJJr1QuuOx36FKF8ej-73" edge="1">
          <mxGeometry width="160" relative="1" as="geometry">
            <mxPoint x="364.3601948465991" y="770.0032034356007" as="sourcePoint" />
            <mxPoint x="287.99980515339456" y="804.5767965644036" as="targetPoint" />
          </mxGeometry>
        </mxCell>
        <mxCell id="z9jJJr1QuuOx36FKF8ej-81" value="" style="html=1;verticalAlign=bottom;labelBackgroundColor=none;endArrow=block;endFill=1;dashed=1;rounded=0;entryX=0.5;entryY=0;entryDx=0;entryDy=0;" parent="1" source="z9jJJr1QuuOx36FKF8ej-77" target="z9jJJr1QuuOx36FKF8ej-73" edge="1">
          <mxGeometry width="160" relative="1" as="geometry">
            <mxPoint x="316.6801948466084" y="761.2132034355943" as="sourcePoint" />
            <mxPoint x="296.8198051533948" y="808.7867965644036" as="targetPoint" />
          </mxGeometry>
        </mxCell>
        <mxCell id="z9jJJr1QuuOx36FKF8ej-82" value="" style="html=1;verticalAlign=bottom;labelBackgroundColor=none;endArrow=block;endFill=1;dashed=1;rounded=0;entryX=0;entryY=0;entryDx=0;entryDy=0;exitX=1;exitY=0.5;exitDx=0;exitDy=0;" parent="1" source="z9jJJr1QuuOx36FKF8ej-75" target="z9jJJr1QuuOx36FKF8ej-73" edge="1">
          <mxGeometry width="160" relative="1" as="geometry">
            <mxPoint x="250.38889357394532" y="763.0233094303767" as="sourcePoint" />
            <mxPoint x="265" y="800" as="targetPoint" />
          </mxGeometry>
        </mxCell>
        <mxCell id="z9jJJr1QuuOx36FKF8ej-83" value="Help close an account" style="ellipse;whiteSpace=wrap;html=1;" parent="1" vertex="1">
          <mxGeometry x="430" y="580" width="90" height="60" as="geometry" />
        </mxCell>
        <mxCell id="z9jJJr1QuuOx36FKF8ej-84" value="Issue a card" style="ellipse;whiteSpace=wrap;html=1;" parent="1" vertex="1">
          <mxGeometry x="420" y="654" width="90" height="60" as="geometry" />
        </mxCell>
        <mxCell id="z9jJJr1QuuOx36FKF8ej-85" value="" style="endArrow=none;html=1;rounded=0;exitX=0.987;exitY=0.413;exitDx=0;exitDy=0;exitPerimeter=0;entryX=0.5;entryY=0.5;entryDx=0;entryDy=0;entryPerimeter=0;" parent="1" source="z9jJJr1QuuOx36FKF8ej-84" target="z9jJJr1QuuOx36FKF8ej-3" edge="1">
          <mxGeometry width="50" height="50" relative="1" as="geometry">
            <mxPoint x="571.5" y="694" as="sourcePoint" />
            <mxPoint x="706.5" y="684" as="targetPoint" />
          </mxGeometry>
        </mxCell>
        <mxCell id="z9jJJr1QuuOx36FKF8ej-86" value="" style="endArrow=none;html=1;rounded=0;exitX=0.954;exitY=0.719;exitDx=0;exitDy=0;exitPerimeter=0;entryX=0.5;entryY=0.5;entryDx=0;entryDy=0;entryPerimeter=0;" parent="1" source="z9jJJr1QuuOx36FKF8ej-83" target="z9jJJr1QuuOx36FKF8ej-3" edge="1">
          <mxGeometry width="50" height="50" relative="1" as="geometry">
            <mxPoint x="571.5" y="694" as="sourcePoint" />
            <mxPoint x="706.5" y="684" as="targetPoint" />
          </mxGeometry>
        </mxCell>
      </root>
    </mxGraphModel>
  </diagram>
</mxfile>
